<svg id="bfbb4981-b390-42d6-98ab-4a5744552d4b" data-name="Layer 1" xmlns="http://www.w3.org/2000/svg" xmlns:xlink="http://www.w3.org/1999/xlink" viewBox="0 0 1100.09 157.4"><defs><style>.b314c801-9f24-4def-8482-f6928ddd5f6f{fill:#ff5700;}.b35b7b97-2845-49c7-8fa2-2e1ad419790e{fill:url(#ebd3760d-15a5-4990-970f-850470837bb3);}</style><linearGradient id="ebd3760d-15a5-4990-970f-850470837bb3" x1="427.57" y1="110.45" x2="583.42" y2="176.33" gradientUnits="userSpaceOnUse"><stop offset="0.12" stop-color="#ff5700"/><stop offset="0.32" stop-color="#761a00"/></linearGradient></defs><title>teammaker-logo</title><path class="b314c801-9f24-4def-8482-f6928ddd5f6f" d="M12.5,0a11.88,11.88,0,0,1,8.56,3.53,11.83,11.83,0,0,1,3.63,8.66V41.32H39.8A12.38,12.38,0,0,1,52,53.61v.2a11.3,11.3,0,0,1-3.63,8.57A11.71,11.71,0,0,1,39.8,66H24.69v59.75a6.72,6.72,0,0,0,2,4.94,6.84,6.84,0,0,0,5,2H39.8a11.7,11.7,0,0,1,8.57,3.62A11.83,11.83,0,0,1,52,145v.2a11.3,11.3,0,0,1-3.63,8.57,11.7,11.7,0,0,1-8.57,3.62H31.74a30.79,30.79,0,0,1-22.47-9.27A30.68,30.68,0,0,1,0,125.76V12.19A11.83,11.83,0,0,1,3.63,3.53,11.88,11.88,0,0,1,12.19,0Z"/><path class="b314c801-9f24-4def-8482-f6928ddd5f6f" d="M173.83,75.17a11.51,11.51,0,0,1,.4,9.38,11.55,11.55,0,0,1-6.45,6.85q-14.1,6.34-37.08,16.73Q102.19,121,97.24,123.34q7.67,9.67,23.89,9.68a32.6,32.6,0,0,0,19.55-6.35,33,33,0,0,0,12-16.12q2.93-8.26,11.69-8.27a11.65,11.65,0,0,1,10,5.24,11.37,11.37,0,0,1,2.32,6.75,12.81,12.81,0,0,1-.8,4.34A55.54,55.54,0,0,1,155,146.42a56.25,56.25,0,0,1-33.86,11,55.9,55.9,0,0,1-41-17,55.9,55.9,0,0,1-17-41,55.9,55.9,0,0,1,17-41,55.9,55.9,0,0,1,41-17,56.08,56.08,0,0,1,31.64,9.47A56.52,56.52,0,0,1,173.83,75.17Zm-52.7-9A33.21,33.21,0,0,0,87.77,99.66v.71l56.33-25.3Q136.64,66.21,121.13,66.21Z"/><path class="b314c801-9f24-4def-8482-f6928ddd5f6f" d="M293.85,58.35a55.9,55.9,0,0,1,17,41v45.85a11.3,11.3,0,0,1-3.63,8.57,11.69,11.69,0,0,1-8.56,3.62h-.31a11.69,11.69,0,0,1-8.56-3.62,11.3,11.3,0,0,1-3.63-8.57q-11.49,12.19-33.35,12.19a55.89,55.89,0,0,1-41-17,55.9,55.9,0,0,1-17-41,55.9,55.9,0,0,1,17-41,57.91,57.91,0,0,1,82,0Zm-64.7,17.43a32.31,32.31,0,0,0-9.67,23.58,33.36,33.36,0,1,0,66.71,0,33.42,33.42,0,0,0-57-23.58Z"/><path class="b314c801-9f24-4def-8482-f6928ddd5f6f" d="M763.71,58.35a55.9,55.9,0,0,1,17,41v45.85a11.3,11.3,0,0,1-3.63,8.57,11.68,11.68,0,0,1-8.56,3.62h-.3a11.7,11.7,0,0,1-8.57-3.62,11.3,11.3,0,0,1-3.63-8.57q-11.47,12.19-33.35,12.19a55.9,55.9,0,0,1-41-17,55.9,55.9,0,0,1-17-41,55.9,55.9,0,0,1,17-41,57.91,57.91,0,0,1,82,0ZM699,75.78a32.32,32.32,0,0,0-9.68,23.58,33.36,33.36,0,1,0,66.71,0,33.42,33.42,0,0,0-57-23.58Z"/><path class="b314c801-9f24-4def-8482-f6928ddd5f6f" d="M813.39,0A11.9,11.9,0,0,1,822,3.53a11.83,11.83,0,0,1,3.63,8.66V82h3.83a32.65,32.65,0,0,0,22.47-8.57A32.26,32.26,0,0,0,862.57,52.3a12,12,0,0,1,4-7.76,11.48,11.48,0,0,1,8.16-3.22h.3a11.57,11.57,0,0,1,9,4,11.73,11.73,0,0,1,3.23,8.16,10.55,10.55,0,0,1-.1,1.31q-2.42,25.29-19.35,37.89,8.87,5.45,16.32,18.44a56.7,56.7,0,0,1,7.76,28.92v5.14a11.33,11.33,0,0,1-3.62,8.57,11.72,11.72,0,0,1-8.57,3.62h-.3a11.72,11.72,0,0,1-8.57-3.62,11.3,11.3,0,0,1-3.63-8.57v-5.14a33.19,33.19,0,0,0-33.35-33.15h-8.26v38.29a11.3,11.3,0,0,1-3.63,8.57,11.72,11.72,0,0,1-8.57,3.62h-.3a11.72,11.72,0,0,1-8.57-3.62,11.33,11.33,0,0,1-3.62-8.57v-133a11.86,11.86,0,0,1,3.62-8.66A11.9,11.9,0,0,1,813.09,0Z"/><path class="b314c801-9f24-4def-8482-f6928ddd5f6f" d="M1016.75,75.17a11.51,11.51,0,0,1,.4,9.38,11.55,11.55,0,0,1-6.45,6.85q-14.1,6.34-37.08,16.73-28.51,12.9-33.46,15.21,7.67,9.67,23.89,9.68a32.6,32.6,0,0,0,19.55-6.35,33,33,0,0,0,12-16.12q2.91-8.26,11.69-8.27a11.65,11.65,0,0,1,10,5.24,11.37,11.37,0,0,1,2.32,6.75,12.59,12.59,0,0,1-.81,4.34,55.43,55.43,0,0,1-20.86,27.81,57.81,57.81,0,0,1-74.87-6,55.9,55.9,0,0,1-17-41,55.9,55.9,0,0,1,17-41,57.78,57.78,0,0,1,72.66-7.56A56.52,56.52,0,0,1,1016.75,75.17Zm-52.7-9a33.19,33.19,0,0,0-33.36,33.45v.71L987,75.07Q979.57,66.21,964.05,66.21Z"/><path class="b314c801-9f24-4def-8482-f6928ddd5f6f" d="M1087.89,41.32a11.86,11.86,0,0,1,8.67,3.62,12,12,0,0,1,3.53,8.67v.2a11.68,11.68,0,0,1-3.53,8.57,11.83,11.83,0,0,1-8.67,3.63h-5.74a19.06,19.06,0,0,0-14,5.74,19.58,19.58,0,0,0-5.74,14v59.45a11.3,11.3,0,0,1-3.63,8.57,11.69,11.69,0,0,1-8.56,3.62h-.31a11.68,11.68,0,0,1-8.56-3.62,11.3,11.3,0,0,1-3.63-8.57V85.76a43.87,43.87,0,0,1,13-31.44,42.81,42.81,0,0,1,31.44-13Z"/><circle class="b314c801-9f24-4def-8482-f6928ddd5f6f" cx="379.02" cy="17.75" r="14"/><circle class="b314c801-9f24-4def-8482-f6928ddd5f6f" cx="452.02" cy="17.75" r="14"/><circle class="b314c801-9f24-4def-8482-f6928ddd5f6f" cx="524.02" cy="17.75" r="14"/><circle class="b314c801-9f24-4def-8482-f6928ddd5f6f" cx="596.02" cy="17.75" r="14"/><path class="b35b7b97-2845-49c7-8fa2-2e1ad419790e" d="M486,55.52a51.34,51.34,0,0,0-8.32-6.76,46.63,46.63,0,0,0-25.94-7.44q-24,0-36.08,15.92Q403.49,41.31,379.5,41.32a46.72,46.72,0,0,0-34.26,14.2A47,47,0,0,0,331,89.79v55.42a11.3,11.3,0,0,0,3.63,8.57,11.7,11.7,0,0,0,8.57,3.62h.3a11.72,11.72,0,0,0,8.57-3.62,11.33,11.33,0,0,0,3.62-8.57V89.79a23.79,23.79,0,1,1,47.57,0v55.42a11.33,11.33,0,0,0,3.62,8.57,11.82,11.82,0,0,0,8.67,3.62h.2A12.38,12.38,0,0,0,428,145.21V89.79A23.87,23.87,0,0,1,468.69,73a25.22,25.22,0,0,1,2.31,2.7,22.77,22.77,0,0,1,4.64,14.13V91h24.59V89.79A47,47,0,0,0,486,55.52Z"/><path class="b314c801-9f24-4def-8482-f6928ddd5f6f" d="M500.28,145.21a11.3,11.3,0,0,1-3.63,8.57,11.72,11.72,0,0,1-8.57,3.62h-.3a11.72,11.72,0,0,1-8.57-3.62,11.33,11.33,0,0,1-3.62-8.57V89.79A46.92,46.92,0,0,1,489.8,55.52a46.69,46.69,0,0,1,34.26-14.2q24,0,36.18,15.92,12.09-15.93,36.07-15.92a46.69,46.69,0,0,1,34.26,14.2,46.92,46.92,0,0,1,14.21,34.27v55.42a11.64,11.64,0,0,1-3.53,8.57,11.79,11.79,0,0,1-8.66,3.62h-.2a12.38,12.38,0,0,1-12.2-12.19V89.79a23.83,23.83,0,1,0-47.66,0v55.42a12.38,12.38,0,0,1-12.19,12.19h-.21a11.8,11.8,0,0,1-8.66-3.62,11.3,11.3,0,0,1-3.63-8.57V89.79a23.78,23.78,0,1,0-47.56,0Z"/></svg>